# xmcd
#
# Track frame offsets:
#	150
#	13625
#	30340
#	41437
#	55717
#	68615
#	82665
#	93120
#	107645
#	123345
#	136957
#	156507
#	169335
#
# Disc length: 2459 seconds
#
# Revision: 1
# Processed by: cddbd v1.5.1PL0 Copyright (c) Steve Scherf et al.
# Submitted via: Rip'N'TagIt 1.2.0.1 
#
DISCID=9409990d
DTITLE=Tony Rice - Tony Rice Plays and Sings Bluegrass
DYEAR=1993
DGENRE=Bluegrass
TTITLE0=I've Waited as Long as I Can
TTITLE1=Brown Mountain Light
TTITLE2=How Mountain Girls Can Love
TTITLE3=Carolina Star
TTITLE4=Thunderclouds of Love
TTITLE5=On and On
TTITLE6=This Morning at Nine
TTITLE7=I Wonder Where You Are Tonight
TTITLE8=Galveston Flood
TTITLE9=Will You Be Loving Another Man
TTITLE10=Girl From the North Country
TTITLE11=Ain't Nobody Gonna Miss Me When I'm Gone
TTITLE12=I'll Stay Around
EXTD=Rounder CD - RCD 0253
EXTT0=
EXTT1=
EXTT2=
EXTT3=
EXTT4=
EXTT5=
EXTT6=
EXTT7=
EXTT8=
EXTT9=
EXTT10=
EXTT11=
EXTT12=
PLAYORDER=
